<svg xmlns="http://www.w3.org/2000/svg" viewBox="0 0 64 64"><title>Payment-Icons</title><rect x="5.05" y="11.05" width="53.91" height="41.91" rx="4" style="fill:#fff"/><path d="M18.2,32.45h2.39l-1.2-3Zm33.27-5.67H45.35l-1.49,1.64-1.34-1.64h-13l-1.19,2.68-1.2-2.68H21.93V28l-.6-1.19H16.86L12.53,37.22h5.22l.6-1.64h1.49l.6,1.64h5.82V36l.44,1.19h3l.45-1.34v1.34H42.07l1.49-1.64,1.34,1.64H51L47.14,32Zm-18,8.95H31.78V29.91l-2.54,5.82H27.75l-2.54-5.82v5.82H21.78l-.6-1.64H17.6L17,35.73H15.07l3.13-7.46h2.54l2.83,7v-7h2.84l2.23,5.07,2.09-5.07h2.84v7.46Zm14.77,0H46L44,33.19l-2.24,2.54H35.06V28.27h6.86L44,30.66l2.24-2.39h2.08L45.05,32Zm-11.49-6V31.1h3.73v1.5H36.7v1.49h4.18l1.94-2.24L41,29.76Z" style="fill:#3998d3;fill-rule:evenodd"/></svg>