<svg xmlns="http://www.w3.org/2000/svg" viewBox="0 0 64 64"><title>Payment-Icons</title><rect x="5.05" y="11.05" width="53.91" height="41.91" rx="4" style="fill:#fff"/><path d="M33.2,28.66A3.36,3.36,0,0,0,29.77,32a3.43,3.43,0,1,0,3.43-3.3Z" style="fill:#f58220"/><path d="M13.74,28.78H11.9V35.2h1.83A3.34,3.34,0,0,0,16,34.46a3.21,3.21,0,0,0-2.28-5.68Zm1.47,4.82a2.38,2.38,0,0,1-1.72.51h-.34V29.86h.34a2.37,2.37,0,0,1,1.72.52,2.22,2.22,0,0,1,0,3.22Z" style="fill:#091a23"/><rect x="17.77" y="28.78" width="1.25" height="6.43" style="fill:#091a23"/><path d="M22.09,31.24c-.76-.28-1-.46-1-.81s.4-.71.94-.71a1.3,1.3,0,0,1,1,.52l.66-.86a2.83,2.83,0,0,0-1.89-.71,1.89,1.89,0,0,0-2,1.84c0,.89.41,1.34,1.58,1.76a5.58,5.58,0,0,1,.87.37.76.76,0,0,1,.38.66.92.92,0,0,1-1,.91,1.48,1.48,0,0,1-1.37-.86l-.81.79a2.53,2.53,0,0,0,2.23,1.22,2.08,2.08,0,0,0,2.22-2.11C23.94,32.23,23.51,31.76,22.09,31.24Z" style="fill:#091a23"/><path d="M24.33,32a3.34,3.34,0,0,0,3.39,3.36A3.49,3.49,0,0,0,29.3,35V33.5a2,2,0,0,1-1.52.7A2.1,2.1,0,0,1,25.62,32,2.1,2.1,0,0,1,29.3,30.5V29a3.23,3.23,0,0,0-1.55-.4A3.38,3.38,0,0,0,24.33,32Z" style="fill:#091a23"/><polygon points="39.45 33.09 37.74 28.78 36.37 28.78 39.1 35.37 39.77 35.37 42.55 28.78 41.19 28.78 39.45 33.09" style="fill:#091a23"/><polygon points="43.12 35.2 46.67 35.2 46.67 34.12 44.37 34.12 44.37 32.38 46.59 32.38 46.59 31.29 44.37 31.29 44.37 29.86 46.67 29.86 46.67 28.78 43.12 28.78 43.12 35.2" style="fill:#091a23"/><path d="M51.64,30.67c0-1.2-.83-1.89-2.28-1.89H47.5V35.2h1.25V32.62h.17l1.73,2.58H52.2l-2-2.7A1.72,1.72,0,0,0,51.64,30.67Zm-2.52,1.06h-.37V29.79h.39c.78,0,1.21.33,1.21.95S49.92,31.73,49.12,31.73Z" style="fill:#091a23"/><path d="M52.52,29.26c0-.12-.08-.18-.21-.18h-.19v.57h.14v-.22l.16.22h.16l-.18-.24A.15.15,0,0,0,52.52,29.26Zm-.24.07h0v-.14h0c.07,0,.11,0,.11.07S52.35,29.33,52.28,29.33Z" style="fill:#231f20"/><path d="M52.33,28.87a.5.5,0,0,0,0,1,.5.5,0,0,0,.49-.5A.49.49,0,0,0,52.33,28.87Zm0,.9a.41.41,0,1,1,.39-.41A.4.4,0,0,1,52.33,29.77Z" style="fill:#231f20"/></svg>