<svg xmlns="http://www.w3.org/2000/svg" viewBox="0 0 64 64"><title>Payment-Icons</title><rect x="5.05" y="11.05" width="53.91" height="41.91" rx="4" style="fill:#fff"/><polygon points="39.59 44.13 40.18 44.11 40.76 44.07 41.33 44 41.89 43.9 42.44 43.77 42.98 43.62 43.5 43.44 44.02 43.23 44.53 43 45.02 42.76 45.49 42.48 45.95 42.18 46.4 41.87 46.83 41.53 47.24 41.17 47.64 40.8 48.02 40.4 48.37 39.99 48.71 39.56 49.03 39.11 49.32 38.65 49.6 38.17 49.84 37.69 50.08 37.18 50.28 36.66 50.46 36.13 50.61 35.59 50.74 35.05 50.84 34.48 50.91 33.92 50.95 33.34 50.97 32.75 50.95 32.17 50.91 31.6 50.84 31.03 50.74 30.47 50.61 29.93 50.46 29.39 50.28 28.86 50.08 28.35 49.84 27.85 49.6 27.36 49.32 26.89 49.03 26.42 48.71 25.98 48.37 25.55 48.02 25.14 47.64 24.75 47.24 24.37 46.83 24.01 46.4 23.68 45.95 23.36 45.49 23.06 45.02 22.79 44.53 22.54 44.02 22.31 43.5 22.11 42.98 21.93 42.44 21.78 41.89 21.65 41.33 21.55 40.76 21.48 40.18 21.44 39.59 21.42 39.01 21.44 38.43 21.48 37.87 21.55 37.31 21.65 36.76 21.78 36.22 21.93 35.7 22.11 35.18 22.31 34.68 22.54 34.19 22.79 33.72 23.06 33.26 23.36 32.81 23.68 32.38 24.01 31.97 24.37 31.58 24.75 31.2 25.14 30.85 25.55 30.51 25.98 30.2 26.42 29.9 26.89 29.63 27.36 29.38 27.85 29.15 28.35 28.95 28.86 28.77 29.39 28.62 29.93 28.49 30.47 28.39 31.03 28.32 31.6 28.28 32.17 28.26 32.75 28.28 33.34 28.32 33.92 28.39 34.48 28.49 35.05 28.62 35.59 28.77 36.13 28.95 36.66 29.15 37.18 29.38 37.69 29.63 38.17 29.9 38.65 30.2 39.11 30.51 39.56 30.85 39.99 31.2 40.4 31.58 40.8 31.97 41.17 32.38 41.53 32.81 41.87 33.26 42.18 33.72 42.48 34.19 42.76 34.68 43 35.18 43.23 35.7 43.44 36.22 43.62 36.76 43.77 37.31 43.9 37.87 44 38.43 44.07 39.01 44.11 39.59 44.13 39.59 44.13 39.59 44.13" style="fill:#fbb22f;fill-rule:evenodd"/><polygon points="24.41 44.13 24.99 44.11 25.57 44.07 26.13 44 26.69 43.9 27.24 43.77 27.78 43.62 28.3 43.44 28.82 43.23 29.32 43 29.81 42.76 30.29 42.48 30.74 42.18 31.19 41.87 31.62 41.53 32.03 41.17 32.42 40.8 32.8 40.4 33.15 39.99 33.49 39.56 33.8 39.11 34.1 38.65 34.37 38.17 34.62 37.69 34.85 37.18 35.05 36.66 35.23 36.13 35.38 35.59 35.51 35.05 35.61 34.48 35.68 33.92 35.72 33.34 35.74 32.75 35.72 32.17 35.68 31.6 35.61 31.03 35.51 30.47 35.38 29.93 35.23 29.39 35.05 28.86 34.85 28.35 34.62 27.85 34.37 27.36 34.1 26.89 33.8 26.42 33.49 25.98 33.15 25.55 32.8 25.14 32.42 24.75 32.03 24.37 31.62 24.01 31.19 23.68 30.74 23.36 30.29 23.06 29.81 22.79 29.32 22.54 28.82 22.31 28.3 22.11 27.78 21.93 27.24 21.78 26.69 21.65 26.13 21.55 25.57 21.48 24.99 21.44 24.41 21.42 23.82 21.44 23.24 21.48 22.68 21.55 22.11 21.65 21.57 21.78 21.02 21.93 20.5 22.11 19.98 22.31 19.48 22.54 18.98 22.79 18.51 23.06 18.05 23.36 17.6 23.68 17.17 24.01 16.76 24.37 16.36 24.75 15.99 25.14 15.63 25.55 15.29 25.98 14.97 26.42 14.68 26.89 14.4 27.36 14.16 27.85 13.93 28.35 13.72 28.86 13.54 29.39 13.39 29.93 13.26 30.47 13.16 31.03 13.09 31.6 13.05 32.17 13.03 32.75 13.05 33.34 13.09 33.92 13.16 34.48 13.26 35.05 13.39 35.59 13.54 36.13 13.72 36.66 13.93 37.18 14.16 37.69 14.4 38.17 14.68 38.65 14.97 39.11 15.29 39.56 15.63 39.99 15.99 40.4 16.36 40.8 16.76 41.17 17.17 41.53 17.6 41.87 18.05 42.18 18.51 42.48 18.98 42.76 19.48 43 19.98 43.23 20.5 43.44 21.02 43.62 21.57 43.77 22.11 43.9 22.68 44 23.24 44.07 23.82 44.11 24.41 44.13 24.41 44.13 24.41 44.13" style="fill:#eb2030;fill-rule:evenodd"/><polygon points="30.67 25.78 36.7 25.78 36.7 25.16 31.19 25.16 30.67 25.78 30.67 25.78 30.67 25.78" style="fill:#fbb22f;fill-rule:evenodd"/><polygon points="29.77 27.15 36.7 27.15 36.7 26.53 30.13 26.53 29.77 27.15 29.77 27.15 29.77 27.15" style="fill:#fbb22f;fill-rule:evenodd"/><polygon points="29.09 28.51 36.7 28.51 36.7 27.9 29.36 27.9 29.09 28.51 29.09 28.51 29.09 28.51" style="fill:#fbb22f;fill-rule:evenodd"/><polygon points="28.63 29.88 36.7 29.88 36.7 29.27 28.82 29.27 28.63 29.88 28.63 29.88 28.63 29.88" style="fill:#fbb22f;fill-rule:evenodd"/><polygon points="28.9 36.51 36.72 36.51 36.72 35.89 28.71 35.89 28.9 36.51 28.9 36.51 28.9 36.51" style="fill:#fbb22f;fill-rule:evenodd"/><polygon points="28.5 35.08 36.33 35.08 36.33 34.47 28.31 34.47 28.5 35.08 28.5 35.08 28.5 35.08" style="fill:#fbb22f;fill-rule:evenodd"/><polygon points="29.48 37.88 36.72 37.88 36.72 37.26 29.19 37.26 29.48 37.88 29.48 37.88 29.48 37.88" style="fill:#fbb22f;fill-rule:evenodd"/><polygon points="30.29 39.25 36.72 39.25 36.72 38.63 29.9 38.63 30.29 39.25 30.29 39.25 30.29 39.25" style="fill:#fbb22f;fill-rule:evenodd"/><polygon points="31.41 40.62 36.72 40.62 36.72 40 30.87 40 31.41 40.62 31.41 40.62 31.41 40.62" style="fill:#fbb22f;fill-rule:evenodd"/><polygon points="28.36 31.25 36.7 31.25 36.7 30.64 28.48 30.64 28.36 31.25 28.36 31.25 28.36 31.25" style="fill:#fbb22f;fill-rule:evenodd"/><polygon points="29.23 32.51 36.49 32.51 36.49 31.89 28.27 31.89 28.15 32.51 28.15 32.51 29.23 32.51" style="fill:#fbb22f;fill-rule:evenodd"/><polygon points="30.1 33.77 36.63 33.77 36.63 33.16 28.77 33.16 28.66 33.77 33.7 33.77 30.1 33.77" style="fill:#fbb22f;fill-rule:evenodd"/><polygon points="28.15 33.16 28.98 33.16 28.98 33.77 28.19 33.77 28.15 33.16 28.15 33.16 28.15 33.16" style="fill:#fbb22f;fill-rule:evenodd"/><polygon points="49.19 39.65 49.19 39.64 49.22 39.54 49.27 39.45 49.34 39.37 49.42 39.31 49.51 39.27 49.61 39.24 49.72 39.23 49.82 39.24 49.92 39.27 50.01 39.31 50.09 39.37 50.16 39.45 50.21 39.54 50.24 39.64 50.24 39.65 50.13 39.65 50.11 39.57 50.07 39.5 50.02 39.44 49.96 39.38 49.89 39.34 49.8 39.31 49.72 39.3 49.63 39.31 49.54 39.34 49.47 39.38 49.41 39.44 49.36 39.5 49.32 39.57 49.3 39.65 49.19 39.65 49.19 39.65 49.19 39.65" style="fill:#fbb22f;fill-rule:evenodd"/><polygon points="49.52 39.65 49.52 39.52 49.73 39.52 49.78 39.52 49.82 39.53 49.85 39.53 49.88 39.55 49.9 39.57 49.91 39.59 49.92 39.62 49.93 39.65 49.85 39.65 49.85 39.63 49.84 39.62 49.84 39.6 49.83 39.59 49.81 39.58 49.8 39.58 49.78 39.58 49.76 39.58 49.73 39.58 49.62 39.58 49.62 39.65 49.52 39.65 49.52 39.65 49.52 39.65" style="fill:#fbb22f;fill-rule:evenodd"/><polygon points="49.17 39.74 49.19 39.65 49.3 39.65 49.3 39.66 49.29 39.74 49.17 39.74 49.17 39.74 49.17 39.74" style="fill:#fbb22f;fill-rule:evenodd"/><polygon points="49.52 39.74 49.52 39.65 49.62 39.65 49.62 39.73 49.72 39.73 49.75 39.72 49.78 39.72 49.8 39.71 49.82 39.7 49.83 39.69 49.84 39.68 49.85 39.66 49.85 39.65 49.93 39.65 49.93 39.65 49.92 39.68 49.91 39.7 49.9 39.72 49.89 39.74 49.52 39.74 49.52 39.74 49.52 39.74" style="fill:#fbb22f;fill-rule:evenodd"/><polygon points="50.14 39.74 50.13 39.66 50.13 39.65 50.24 39.65 50.25 39.74 50.14 39.74 50.14 39.74 50.14 39.74" style="fill:#fbb22f;fill-rule:evenodd"/><polygon points="49.17 39.74 49.17 39.75 49.19 39.86 49.22 39.96 49.27 40.05 49.34 40.13 49.42 40.2 49.51 40.25 49.61 40.28 49.72 40.29 49.82 40.28 49.92 40.25 50.01 40.2 50.09 40.13 50.16 40.05 50.21 39.96 50.24 39.86 50.25 39.75 50.25 39.74 50.14 39.74 50.14 39.75 50.13 39.84 50.11 39.92 50.07 40 50.02 40.06 49.96 40.12 49.89 40.16 49.8 40.19 49.72 40.19 49.63 40.19 49.54 40.16 49.47 40.12 49.41 40.06 49.36 40 49.32 39.92 49.3 39.84 49.29 39.75 49.29 39.74 49.17 39.74 49.17 39.74 49.17 39.74" style="fill:#fbb22f;fill-rule:evenodd"/><polygon points="49.52 39.74 49.52 39.96 49.62 39.96 49.62 39.77 49.72 39.77 49.83 39.96 49.91 39.96 49.79 39.77 49.82 39.77 49.84 39.76 49.87 39.75 49.89 39.74 49.89 39.74 49.52 39.74 49.52 39.74 49.52 39.74" style="fill:#fbb22f;fill-rule:evenodd"/></svg>