<svg xmlns="http://www.w3.org/2000/svg" viewBox="0 0 64 64"><title>Payment-Icons</title><rect x="5.05" y="11.05" width="53.91" height="41.91" rx="4" style="fill:#fff"/><path d="M45.45,28.94a4.28,4.28,0,0,0-2-.35,8.52,8.52,0,0,0-1.33.11,5.26,5.26,0,0,0-.57.1.65.65,0,0,0-.48.51l-.13.55c-.08.35.12.34.21.31a5.65,5.65,0,0,1,.66-.19,5,5,0,0,1,1-.14,2.84,2.84,0,0,1,1,.14.51.51,0,0,1,.33.5.41.41,0,0,1,0,.16s0,.08-.16.09c-.63,0-1.08.1-1.62.18a4.83,4.83,0,0,0-1.4.38,2.18,2.18,0,0,0-.94.75,2,2,0,0,0-.32,1.15,1.34,1.34,0,0,0,.45,1,1.67,1.67,0,0,0,1.16.4,2.52,2.52,0,0,0,.69-.07,3.69,3.69,0,0,0,.53-.18,2.6,2.6,0,0,0,.45-.25l.42-.27h0l0,.18h0a.32.32,0,0,0,.29.41h1.05a.58.58,0,0,0,.47-.41l.8-3.47a2,2,0,0,0,0-.29c0-.11,0-.2,0-.26A1.18,1.18,0,0,0,45.45,28.94Zm-2,4.13a3.55,3.55,0,0,1-.43.23,1.63,1.63,0,0,1-.58.12,1.28,1.28,0,0,1-.62-.12.43.43,0,0,1-.22-.41.91.91,0,0,1,.16-.54,1.08,1.08,0,0,1,.47-.31,3.76,3.76,0,0,1,.73-.17l.81-.09c.06,0,.1,0,.07.14s-.15.66-.22.93A.48.48,0,0,1,43.5,33.07Z" style="fill:#34679a"/><path d="M31.62,28.67a1,1,0,0,0-.69.42l-1.73,3c-.08.15-.17.06-.18,0l-.49-3a.61.61,0,0,0-.6-.43H27a.32.32,0,0,0-.33.42s.75,4.26.89,5.26c.08.55,0,.65,0,.65l-1,1.7c-.14.23-.06.42.17.42h1.14a.92.92,0,0,0,.69-.42l4.38-7.41s.42-.64,0-.63H31.62" style="fill:#1b3665"/><path d="M17.79,30.18a2.32,2.32,0,0,1-1.39.36h-.27a.33.33,0,0,1-.33-.42l.33-1.43a.57.57,0,0,1,.53-.42H17a1.65,1.65,0,0,1,.95.22.73.73,0,0,1,.32.65,1.23,1.23,0,0,1-.5,1M20.17,28a1.59,1.59,0,0,0-.61-.65,2.68,2.68,0,0,0-.95-.35,8,8,0,0,0-1.3-.11H15a.56.56,0,0,0-.52.41L12.94,34a.33.33,0,0,0,.33.42h1.1A.57.57,0,0,0,14.9,34l.38-1.64A.56.56,0,0,1,15.8,32h.32a5.23,5.23,0,0,0,3.14-.82A2.6,2.6,0,0,0,20.38,29a2.07,2.07,0,0,0-.21-1" style="fill:#1b3665"/><path d="M37.76,30.2a2.31,2.31,0,0,1-1.38.36H36.1a.32.32,0,0,1-.33-.42l.33-1.42a.56.56,0,0,1,.52-.42H37a1.78,1.78,0,0,1,1,.21.74.74,0,0,1,.32.66,1.21,1.21,0,0,1-.5,1M40.14,28a1.73,1.73,0,0,0-.61-.65,2.68,2.68,0,0,0-1-.35,8.09,8.09,0,0,0-1.3-.1H35a.56.56,0,0,0-.52.42l-1.55,6.73a.33.33,0,0,0,.33.42h1.1a.57.57,0,0,0,.53-.42l.38-1.63a.56.56,0,0,1,.52-.42h.32a5.23,5.23,0,0,0,3.14-.83A2.6,2.6,0,0,0,40.35,29a2.1,2.1,0,0,0-.21-1" style="fill:#34679a"/><path d="M25.47,28.94a4.12,4.12,0,0,0-2-.35,8.6,8.6,0,0,0-1.33.1l-.56.1a.65.65,0,0,0-.48.51l-.14.56c-.08.35.13.33.22.31a5.42,5.42,0,0,1,.65-.2,5.06,5.06,0,0,1,1-.14,2.8,2.8,0,0,1,1,.14.52.52,0,0,1,.33.5.29.29,0,0,1,0,.16s-.05.09-.15.1c-.63,0-1.08.09-1.63.17a5.19,5.19,0,0,0-1.39.39,2.13,2.13,0,0,0-1,.75,2,2,0,0,0-.31,1.14,1.37,1.37,0,0,0,.44,1,1.71,1.71,0,0,0,1.16.39,2.93,2.93,0,0,0,1.68-.49l.41-.28h0l0,.18h0a.32.32,0,0,0,.29.41h1a.56.56,0,0,0,.47-.41l.8-3.47a1.78,1.78,0,0,0,0-.28,1.3,1.3,0,0,0,0-.27A1.12,1.12,0,0,0,25.47,28.94Zm-1.95,4.13a2.18,2.18,0,0,1-.43.22,1.61,1.61,0,0,1-.57.13,1.3,1.3,0,0,1-.63-.12.42.42,0,0,1-.21-.41.83.83,0,0,1,.16-.54,1.18,1.18,0,0,1,.47-.32,3.7,3.7,0,0,1,.72-.16l.81-.09c.06,0,.11,0,.08.13s-.16.66-.22.93A.53.53,0,0,1,23.52,33.07Z" style="fill:#1b3665"/><path d="M49.24,27h-1a.57.57,0,0,0-.51.39s0,0,0,0l0,.26-1.36,6.14c0,.15-.05.25-.06.28h0a.33.33,0,0,0,.29.41h1a.56.56,0,0,0,.51-.38l0,0,1.47-6.68h0A.33.33,0,0,0,49.24,27Z" style="fill:#34679a"/><path d="M50.73,28.31l-.11,0h-.11a.37.37,0,0,1-.25-.08.46.46,0,0,1-.08-.29V27.4h-.12v-.15h.12v-.31h.18v.31h.37v.15h-.37V28a.32.32,0,0,0,0,.09.09.09,0,0,0,.06.06l.11,0,.09,0,.07,0h0Z" style="fill:#34679a"/><path d="M52.51,28.32h-.18v-.61a.57.57,0,0,0,0-.13.25.25,0,0,0,0-.1.23.23,0,0,0-.07-.07l-.11,0a.42.42,0,0,0-.15,0l-.16.1a.07.07,0,0,1,0,0v.74h-.18v-.61a.57.57,0,0,0,0-.13.25.25,0,0,0,0-.1.23.23,0,0,0-.07-.07l-.11,0a.42.42,0,0,0-.15,0,.6.6,0,0,0-.15.09v.8H51V27.25h.18v.12a.82.82,0,0,1,.17-.11.48.48,0,0,1,.18,0,.35.35,0,0,1,.18.05.3.3,0,0,1,.12.13.7.7,0,0,1,.19-.14.65.65,0,0,1,.2,0,.33.33,0,0,1,.26.11.51.51,0,0,1,.08.3Z" style="fill:#34679a"/></svg>