<svg xmlns="http://www.w3.org/2000/svg" viewBox="0 0 64 64"><title>Payment-Icons</title><rect x="5" y="11.82" width="53.91" height="41.91" rx="4" style="fill:#fff"/><polygon points="29.46 38.66 26.4 38.66 28.31 26.9 31.37 26.9 29.46 38.66" style="fill:#0b67b2"/><path d="M23.82,26.9,20.9,35l-.34-1.75h0l-1-5.28a1.32,1.32,0,0,0-1.45-1.06H13.25l-.06.2a11.28,11.28,0,0,1,3.21,1.34l2.66,10.22h3.19L27.12,26.9Z" style="fill:#0b67b2"/><path d="M47.9,38.66h2.81L48.26,26.9H45.8a1.39,1.39,0,0,0-1.41.87L39.82,38.66H43l.64-1.75h3.89ZM44.53,34.5l1.61-4.4.91,4.4Z" style="fill:#0b67b2"/><path d="M40.06,29.73l.44-2.53a8.91,8.91,0,0,0-2.76-.51c-1.52,0-5.12.66-5.12,3.89,0,3,4.23,3.08,4.23,4.67s-3.8,1.31-5.05.31l-.46,2.63a8.54,8.54,0,0,0,3.46.67c2.09,0,5.24-1.08,5.24-4s-4.27-3.34-4.27-4.67S38.75,29,40.06,29.73Z" style="fill:#0b67b2"/><path d="M20.56,33.24l-1-5.28a1.32,1.32,0,0,0-1.45-1.06H13.25l-.06.2a11.9,11.9,0,0,1,4.55,2.28A9.24,9.24,0,0,1,20.56,33.24Z" style="fill:#faa634"/></svg>